<svg width="414" height="67" viewBox="0 0 414 67" fill="none" xmlns="http://www.w3.org/2000/svg">
<rect x="0.6" y="0.6" width="406.585" height="61.8" rx="11.4" fill="#FDFDFD" stroke="url(#paint0_linear_625_3299)" stroke-width="1.2"/>
<rect x="11.9492" y="8" width="383.885" height="47" rx="12" fill="url(#paint1_linear_625_3299)"/>
<foreignObject x="3.67724" y="-0.274191" width="409.765" height="66.823"><div xmlns="http://www.w3.org/1999/xhtml" style="backdrop-filter:blur(3.69px);clip-path:url(#bgblur_0_625_3299_clip_path);height:100%;width:100%"></div></foreignObject><g filter="url(#filter0_d_625_3299)" data-figma-bg-blur-radius="7.38721">
<rect x="11.9512" y="8" width="383.885" height="47" rx="12" fill="#FFF7F7" fill-opacity="0.5" shape-rendering="crispEdges"/>
<rect x="11.9512" y="8" width="383.885" height="47" rx="12" stroke="url(#paint2_linear_625_3299)" stroke-width="1.77395" shape-rendering="crispEdges"/>
</g>
<path d="M128.118 39.5V24.9545H130.312V37.6108H136.903V39.5H128.118ZM142.411 39.7415C141.72 39.7415 141.095 39.6136 140.536 39.358C139.977 39.0975 139.534 38.7211 139.208 38.2287C138.886 37.7363 138.725 37.1326 138.725 36.4176C138.725 35.8021 138.843 35.2955 139.08 34.8977C139.317 34.5 139.636 34.1851 140.039 33.9531C140.441 33.7211 140.891 33.5459 141.388 33.4276C141.885 33.3092 142.392 33.2192 142.908 33.1577C143.561 33.0819 144.092 33.0204 144.499 32.973C144.906 32.9209 145.202 32.8381 145.387 32.7244C145.571 32.6108 145.664 32.4261 145.664 32.1705V32.1207C145.664 31.5005 145.489 31.0199 145.138 30.679C144.792 30.3381 144.276 30.1676 143.59 30.1676C142.875 30.1676 142.311 30.3262 141.9 30.6435C141.492 30.956 141.211 31.304 141.054 31.6875L139.059 31.233C139.295 30.5701 139.641 30.035 140.096 29.6278C140.555 29.2159 141.083 28.9176 141.679 28.733C142.276 28.5436 142.903 28.4489 143.561 28.4489C143.997 28.4489 144.459 28.5009 144.946 28.6051C145.439 28.7045 145.898 28.8892 146.324 29.1591C146.755 29.429 147.108 29.8149 147.382 30.3168C147.657 30.8139 147.794 31.4602 147.794 32.2557V39.5H145.721V38.0085H145.635C145.498 38.2831 145.292 38.553 145.017 38.8182C144.743 39.0833 144.39 39.3035 143.959 39.4787C143.528 39.6539 143.012 39.7415 142.411 39.7415ZM142.873 38.0369C143.46 38.0369 143.962 37.9209 144.378 37.6889C144.8 37.4569 145.119 37.1539 145.337 36.7798C145.56 36.401 145.671 35.9962 145.671 35.5653V34.1591C145.595 34.2348 145.448 34.3059 145.23 34.3722C145.017 34.4337 144.774 34.4882 144.499 34.5355C144.224 34.5781 143.957 34.6184 143.696 34.6562C143.436 34.6894 143.218 34.7178 143.043 34.7415C142.631 34.7936 142.255 34.8812 141.914 35.0043C141.578 35.1274 141.308 35.3049 141.104 35.5369C140.905 35.7642 140.806 36.0672 140.806 36.446C140.806 36.9716 141 37.3693 141.388 37.6392C141.776 37.9044 142.271 38.0369 142.873 38.0369ZM157.533 34.9759V28.5909H159.664V39.5H157.576V37.6108H157.462C157.211 38.1932 156.809 38.6785 156.255 39.0668C155.706 39.4503 155.022 39.642 154.202 39.642C153.502 39.642 152.881 39.4882 152.342 39.1804C151.807 38.8679 151.385 38.4062 151.077 37.7955C150.774 37.1847 150.623 36.4295 150.623 35.5298V28.5909H152.746V35.2741C152.746 36.0175 152.952 36.6094 153.364 37.0497C153.776 37.4901 154.311 37.7102 154.969 37.7102C155.367 37.7102 155.763 37.6108 156.156 37.4119C156.553 37.2131 156.882 36.9124 157.143 36.5099C157.408 36.1075 157.538 35.5961 157.533 34.9759ZM164.641 33.0227V39.5H162.517V28.5909H164.556V30.3665H164.691C164.942 29.7888 165.335 29.3248 165.87 28.9744C166.409 28.6241 167.089 28.4489 167.908 28.4489C168.651 28.4489 169.302 28.6051 169.861 28.9176C170.42 29.2254 170.853 29.6847 171.161 30.2955C171.469 30.9062 171.623 31.6615 171.623 32.5611V39.5H169.499V32.8168C169.499 32.026 169.293 31.4081 168.881 30.9631C168.469 30.5133 167.903 30.2884 167.184 30.2884C166.691 30.2884 166.253 30.3949 165.87 30.608C165.491 30.821 165.19 31.1335 164.968 31.5455C164.75 31.9527 164.641 32.4451 164.641 33.0227ZM179.066 39.7202C178.01 39.7202 177.101 39.4811 176.338 39.0028C175.581 38.5199 174.998 37.8546 174.591 37.0071C174.184 36.1596 173.98 35.1889 173.98 34.0952C173.98 32.9872 174.189 32.0095 174.605 31.1619C175.022 30.3097 175.609 29.6444 176.367 29.1662C177.124 28.688 178.017 28.4489 179.044 28.4489C179.873 28.4489 180.612 28.6027 181.26 28.9105C181.909 29.2135 182.432 29.6397 182.83 30.1889C183.232 30.7382 183.471 31.3797 183.547 32.1136H181.48C181.367 31.6023 181.106 31.1619 180.699 30.7926C180.297 30.4233 179.757 30.2386 179.08 30.2386C178.488 30.2386 177.97 30.3949 177.525 30.7074C177.084 31.0152 176.741 31.4555 176.495 32.0284C176.248 32.5966 176.125 33.2689 176.125 34.0455C176.125 34.8409 176.246 35.5275 176.488 36.1051C176.729 36.6828 177.07 37.1302 177.51 37.4474C177.955 37.7647 178.479 37.9233 179.08 37.9233C179.482 37.9233 179.847 37.8499 180.174 37.7031C180.505 37.5516 180.782 37.3362 181.005 37.0568C181.232 36.7775 181.391 36.4413 181.48 36.0483H183.547C183.471 36.7538 183.242 37.3835 182.858 37.9375C182.475 38.4915 181.961 38.9271 181.317 39.2443C180.678 39.5616 179.927 39.7202 179.066 39.7202ZM187.942 33.0227V39.5H185.818V24.9545H187.913V30.3665H188.048C188.304 29.7794 188.695 29.313 189.22 28.9673C189.746 28.6217 190.432 28.4489 191.28 28.4489C192.028 28.4489 192.681 28.6027 193.24 28.9105C193.804 29.2183 194.239 29.6776 194.547 30.2884C194.859 30.8944 195.016 31.652 195.016 32.5611V39.5H192.892V32.8168C192.892 32.0166 192.686 31.3963 192.274 30.956C191.862 30.5109 191.289 30.2884 190.555 30.2884C190.054 30.2884 189.604 30.3949 189.206 30.608C188.813 30.821 188.503 31.1335 188.276 31.5455C188.053 31.9527 187.942 32.4451 187.942 33.0227ZM203.313 24.9545H205.976L210.607 36.2614H210.777L215.408 24.9545H218.071V39.5H215.983V28.9744H215.848L211.559 39.4787H209.826L205.536 28.9673H205.401V39.5H203.313V24.9545ZM221.092 39.5V28.5909H223.215V39.5H221.092ZM222.164 26.9077C221.795 26.9077 221.478 26.7846 221.212 26.5384C220.952 26.2874 220.822 25.9891 220.822 25.6435C220.822 25.2931 220.952 24.9948 221.212 24.7486C221.478 24.4976 221.795 24.3722 222.164 24.3722C222.533 24.3722 222.848 24.4976 223.109 24.7486C223.374 24.9948 223.506 25.2931 223.506 25.6435C223.506 25.9891 223.374 26.2874 223.109 26.5384C222.848 26.7846 222.533 26.9077 222.164 26.9077ZM234.247 31.2543L232.322 31.5952C232.242 31.349 232.114 31.1146 231.939 30.892C231.768 30.6695 231.536 30.4872 231.243 30.3452C230.949 30.2031 230.582 30.1321 230.142 30.1321C229.54 30.1321 229.038 30.267 228.636 30.5369C228.234 30.8021 228.032 31.1454 228.032 31.5668C228.032 31.9313 228.167 32.2249 228.437 32.4474C228.707 32.67 229.143 32.8523 229.744 32.9943L231.477 33.392C232.481 33.6241 233.229 33.9815 233.721 34.4645C234.214 34.9474 234.46 35.5748 234.46 36.3466C234.46 37 234.27 37.5824 233.892 38.0938C233.518 38.6004 232.994 38.9981 232.322 39.2869C231.654 39.5758 230.88 39.7202 230 39.7202C228.778 39.7202 227.781 39.4598 227.01 38.9389C226.238 38.4134 225.764 37.6676 225.589 36.7017L227.642 36.3892C227.77 36.9242 228.032 37.3291 228.43 37.6037C228.828 37.8736 229.346 38.0085 229.985 38.0085C230.681 38.0085 231.238 37.8641 231.654 37.5753C232.071 37.2817 232.279 36.9242 232.279 36.5028C232.279 36.1619 232.152 35.8755 231.896 35.6435C231.645 35.4115 231.259 35.2363 230.738 35.1179L228.892 34.7131C227.874 34.4811 227.121 34.1117 226.633 33.6051C226.15 33.0985 225.909 32.4569 225.909 31.6804C225.909 31.0365 226.089 30.473 226.449 29.9901C226.808 29.5071 227.306 29.1307 227.94 28.8608C228.574 28.5862 229.301 28.4489 230.12 28.4489C231.299 28.4489 232.227 28.7045 232.904 29.2159C233.582 29.7225 234.029 30.402 234.247 31.2543ZM244.969 31.2543L243.045 31.5952C242.964 31.349 242.836 31.1146 242.661 30.892C242.491 30.6695 242.259 30.4872 241.965 30.3452C241.672 30.2031 241.305 30.1321 240.864 30.1321C240.263 30.1321 239.761 30.267 239.359 30.5369C238.956 30.8021 238.755 31.1454 238.755 31.5668C238.755 31.9313 238.89 32.2249 239.16 32.4474C239.43 32.67 239.865 32.8523 240.467 32.9943L242.2 33.392C243.203 33.6241 243.951 33.9815 244.444 34.4645C244.936 34.9474 245.183 35.5748 245.183 36.3466C245.183 37 244.993 37.5824 244.614 38.0938C244.24 38.6004 243.717 38.9981 243.045 39.2869C242.377 39.5758 241.603 39.7202 240.722 39.7202C239.501 39.7202 238.504 39.4598 237.732 38.9389C236.96 38.4134 236.487 37.6676 236.312 36.7017L238.364 36.3892C238.492 36.9242 238.755 37.3291 239.153 37.6037C239.55 37.8736 240.069 38.0085 240.708 38.0085C241.404 38.0085 241.96 37.8641 242.377 37.5753C242.794 37.2817 243.002 36.9242 243.002 36.5028C243.002 36.1619 242.874 35.8755 242.619 35.6435C242.368 35.4115 241.982 35.2363 241.461 35.1179L239.614 34.7131C238.596 34.4811 237.844 34.1117 237.356 33.6051C236.873 33.0985 236.631 32.4569 236.631 31.6804C236.631 31.0365 236.811 30.473 237.171 29.9901C237.531 29.5071 238.028 29.1307 238.663 28.8608C239.297 28.5862 240.024 28.4489 240.843 28.4489C242.022 28.4489 242.95 28.7045 243.627 29.2159C244.304 29.7225 244.752 30.402 244.969 31.2543ZM247.517 39.5V28.5909H249.641V39.5H247.517ZM248.59 26.9077C248.221 26.9077 247.903 26.7846 247.638 26.5384C247.378 26.2874 247.248 25.9891 247.248 25.6435C247.248 25.2931 247.378 24.9948 247.638 24.7486C247.903 24.4976 248.221 24.3722 248.59 24.3722C248.959 24.3722 249.274 24.4976 249.534 24.7486C249.8 24.9948 249.932 25.2931 249.932 25.6435C249.932 25.9891 249.8 26.2874 249.534 26.5384C249.274 26.7846 248.959 26.9077 248.59 26.9077ZM257.093 39.7202C256.07 39.7202 255.178 39.4858 254.415 39.017C253.653 38.5483 253.061 37.8925 252.64 37.0497C252.219 36.2069 252.008 35.2221 252.008 34.0952C252.008 32.9635 252.219 31.974 252.64 31.1264C253.061 30.2789 253.653 29.6207 254.415 29.152C255.178 28.6832 256.07 28.4489 257.093 28.4489C258.116 28.4489 259.008 28.6832 259.771 29.152C260.533 29.6207 261.125 30.2789 261.546 31.1264C261.968 31.974 262.178 32.9635 262.178 34.0952C262.178 35.2221 261.968 36.2069 261.546 37.0497C261.125 37.8925 260.533 38.5483 259.771 39.017C259.008 39.4858 258.116 39.7202 257.093 39.7202ZM257.1 37.9375C257.763 37.9375 258.312 37.7623 258.748 37.4119C259.183 37.0616 259.505 36.5952 259.714 36.0128C259.927 35.4304 260.033 34.7888 260.033 34.0881C260.033 33.392 259.927 32.7528 259.714 32.1705C259.505 31.5833 259.183 31.1122 258.748 30.7571C258.312 30.402 257.763 30.2244 257.1 30.2244C256.433 30.2244 255.879 30.402 255.438 30.7571C255.003 31.1122 254.678 31.5833 254.465 32.1705C254.257 32.7528 254.153 33.392 254.153 34.0881C254.153 34.7888 254.257 35.4304 254.465 36.0128C254.678 36.5952 255.003 37.0616 255.438 37.4119C255.879 37.7623 256.433 37.9375 257.1 37.9375ZM266.672 33.0227V39.5H264.549V28.5909H266.587V30.3665H266.722C266.973 29.7888 267.366 29.3248 267.901 28.9744C268.441 28.6241 269.12 28.4489 269.939 28.4489C270.683 28.4489 271.334 28.6051 271.892 28.9176C272.451 29.2254 272.884 29.6847 273.192 30.2955C273.5 30.9062 273.654 31.6615 273.654 32.5611V39.5H271.53V32.8168C271.53 32.026 271.324 31.4081 270.912 30.9631C270.5 30.5133 269.935 30.2884 269.215 30.2884C268.722 30.2884 268.284 30.3949 267.901 30.608C267.522 30.821 267.221 31.1335 266.999 31.5455C266.781 31.9527 266.672 32.4451 266.672 33.0227Z" fill="#403939"/>
<defs>
<filter id="filter0_d_625_3299" x="3.67724" y="-0.274191" width="409.765" height="66.823" filterUnits="userSpaceOnUse" color-interpolation-filters="sRGB">
<feFlood flood-opacity="0" result="BackgroundImageFix"/>
<feColorMatrix in="SourceAlpha" type="matrix" values="0 0 0 0 0 0 0 0 0 0 0 0 0 0 0 0 0 0 127 0" result="hardAlpha"/>
<feOffset dx="9.08679" dy="3.02893"/>
<feGaussianBlur stdDeviation="3.81645"/>
<feComposite in2="hardAlpha" operator="out"/>
<feColorMatrix type="matrix" values="0 0 0 0 0.187457 0 0 0 0 0.00104136 0 0 0 0 0.00839984 0 0 0 0.3 0"/>
<feBlend mode="normal" in2="BackgroundImageFix" result="effect1_dropShadow_625_3299"/>
<feBlend mode="normal" in="SourceGraphic" in2="effect1_dropShadow_625_3299" result="shape"/>
</filter>
<clipPath id="bgblur_0_625_3299_clip_path" transform="translate(-3.67724 0.274191)"><rect x="11.9512" y="8" width="383.885" height="47" rx="12"/>
</clipPath><linearGradient id="paint0_linear_625_3299" x1="196.433" y1="42.3818" x2="149.362" y2="-65.2941" gradientUnits="userSpaceOnUse">
<stop stop-color="#FB5555" stop-opacity="0"/>
<stop offset="0.487156" stop-color="#E83737"/>
<stop offset="1" stop-color="#ED0000"/>
</linearGradient>
<linearGradient id="paint1_linear_625_3299" x1="203.892" y1="8" x2="203.892" y2="55" gradientUnits="userSpaceOnUse">
<stop stop-color="#D8D8D8"/>
<stop offset="1" stop-color="#CCCCCC"/>
</linearGradient>
<linearGradient id="paint2_linear_625_3299" x1="11.9512" y1="31.5" x2="395.836" y2="31.5" gradientUnits="userSpaceOnUse">
<stop stop-color="#FB5555" stop-opacity="0"/>
<stop offset="0.5" stop-color="#E83737"/>
<stop offset="1" stop-color="#ED0000"/>
</linearGradient>
</defs>
</svg>
