<svg width="150" height="51" viewBox="0 0 150 51" fill="none" xmlns="http://www.w3.org/2000/svg">
<foreignObject x="-7.38721" y="-2.78321" width="156.556" height="53.4992"><div xmlns="http://www.w3.org/1999/xhtml" style="backdrop-filter:blur(3.69px);clip-path:url(#bgblur_0_1522_827_clip_path);height:100%;width:100%"></div></foreignObject><g filter="url(#filter0_d_1522_827)" data-figma-bg-blur-radius="7.38721">
<rect x="0.224609" y="4.8291" width="132" height="35" rx="12" fill="url(#paint0_linear_1522_827)" shape-rendering="crispEdges"/>
<rect x="0.224609" y="4.8291" width="132" height="35" rx="12" stroke="url(#paint1_linear_1522_827)" stroke-width="0.45" shape-rendering="crispEdges"/>
<path d="M28.8919 22.9945H24.8919V26.9945H23.5586V22.9945H19.5586V21.6611H23.5586V17.6611H24.8919V21.6611H28.8919V22.9945Z" fill="black"/>
<path d="M42.7019 19.4271V18.1018H49.665V19.4271H46.9675V26.8291H45.3993V19.4271H42.7019ZM51.932 26.9612C51.5172 26.9612 51.1436 26.8873 50.8113 26.7396C50.4817 26.589 50.2203 26.3675 50.0272 26.0748C49.8368 25.7822 49.7417 25.4214 49.7417 24.9925C49.7417 24.6231 49.8098 24.3177 49.9462 24.0763C50.0826 23.8348 50.2686 23.6416 50.5044 23.4967C50.7402 23.3518 51.0059 23.2425 51.3013 23.1686C51.5996 23.0919 51.9078 23.0365 52.226 23.0024C52.6096 22.9626 52.9206 22.9271 53.1593 22.8959C53.3979 22.8618 53.5712 22.8106 53.6792 22.7425C53.79 22.6714 53.8453 22.5621 53.8453 22.4143V22.3888C53.8453 22.0677 53.7502 21.8192 53.5598 21.643C53.3695 21.4669 53.0953 21.3788 52.7374 21.3788C52.3596 21.3788 52.0598 21.4612 51.8382 21.626C51.6195 21.7907 51.4718 21.9854 51.3951 22.2098L49.9547 22.0052C50.0684 21.6075 50.2559 21.2751 50.5172 21.0081C50.7786 20.7382 51.0982 20.5365 51.476 20.403C51.8539 20.2666 52.2715 20.1984 52.7289 20.1984C53.0442 20.1984 53.3581 20.2354 53.6706 20.3092C53.9831 20.3831 54.2686 20.5052 54.5272 20.6757C54.7857 20.8433 54.9931 21.072 55.1493 21.3618C55.3084 21.6515 55.388 22.0138 55.388 22.4484V26.8291H53.905V25.93H53.8539C53.7601 26.1118 53.628 26.2822 53.4576 26.4413C53.29 26.5976 53.0783 26.724 52.8226 26.8206C52.5698 26.9143 52.2729 26.9612 51.932 26.9612ZM52.3326 25.8277C52.6422 25.8277 52.9107 25.7666 53.138 25.6444C53.3652 25.5194 53.54 25.3547 53.6621 25.1501C53.7871 24.9456 53.8496 24.7226 53.8496 24.4811V23.7098C53.8013 23.7496 53.7189 23.7865 53.6025 23.8206C53.4888 23.8547 53.361 23.8845 53.2189 23.9101C53.0769 23.9356 52.9363 23.9584 52.7971 23.9782C52.6578 23.9981 52.5371 24.0152 52.4348 24.0294C52.2047 24.0606 51.9988 24.1118 51.8169 24.1828C51.6351 24.2538 51.4917 24.3532 51.3865 24.4811C51.2814 24.6061 51.2289 24.768 51.2289 24.9669C51.2289 25.251 51.3326 25.4655 51.54 25.6104C51.7473 25.7552 52.0115 25.8277 52.3326 25.8277ZM56.9391 26.8291V20.2836H58.4135V21.3959H58.4902C58.6266 21.0209 58.8525 20.7282 59.1678 20.518C59.4831 20.305 59.8596 20.1984 60.2971 20.1984C60.7402 20.1984 61.1138 20.3064 61.4178 20.5223C61.7246 20.7354 61.9405 21.0265 62.0655 21.3959H62.1337C62.2786 21.0322 62.5229 20.7425 62.8667 20.5265C63.2132 20.3078 63.6238 20.1984 64.0982 20.1984C64.7005 20.1984 65.1919 20.3888 65.5726 20.7694C65.9533 21.1501 66.1436 21.7055 66.1436 22.4356V26.8291H64.5968V22.6743C64.5968 22.268 64.4888 21.9711 64.2729 21.7836C64.057 21.5933 63.7928 21.4981 63.4803 21.4981C63.1081 21.4981 62.8169 21.6146 62.6067 21.8476C62.3993 22.0777 62.2956 22.3774 62.2956 22.7467V26.8291H60.7828V22.6104C60.7828 22.2723 60.6806 22.0024 60.476 21.8007C60.2743 21.599 60.0101 21.4981 59.6834 21.4981C59.4618 21.4981 59.2601 21.555 59.0783 21.6686C58.8965 21.7794 58.7516 21.9371 58.6436 22.1416C58.5357 22.3433 58.4817 22.5791 58.4817 22.849V26.8291H56.9391ZM67.7768 26.8291V18.1018H69.3194V21.366H69.3833C69.4629 21.2069 69.5751 21.0379 69.72 20.8589C69.8649 20.6771 70.0609 20.5223 70.3081 20.3944C70.5552 20.2638 70.8706 20.1984 71.2541 20.1984C71.7598 20.1984 72.2157 20.3277 72.622 20.5862C73.0311 20.8419 73.3549 21.2211 73.5936 21.724C73.835 22.224 73.9558 22.8376 73.9558 23.5649C73.9558 24.2836 73.8379 24.8944 73.6021 25.3973C73.3663 25.9001 73.0453 26.2836 72.639 26.5479C72.2328 26.8121 71.7725 26.9442 71.2583 26.9442C70.8833 26.9442 70.5723 26.8817 70.3251 26.7567C70.0779 26.6317 69.8791 26.4811 69.7285 26.305C69.5808 26.126 69.4657 25.9569 69.3833 25.7979H69.2939V26.8291H67.7768ZM69.2896 23.5564C69.2896 23.9797 69.3493 24.3504 69.4686 24.6686C69.5907 24.9868 69.7654 25.2354 69.9927 25.4143C70.2228 25.5905 70.5012 25.6785 70.8279 25.6785C71.1689 25.6785 71.4544 25.5876 71.6845 25.4058C71.9146 25.2211 72.0879 24.9697 72.2044 24.6515C72.3237 24.3305 72.3833 23.9655 72.3833 23.5564C72.3833 23.1501 72.3251 22.7893 72.2086 22.474C72.0922 22.1586 71.9189 21.9115 71.6887 21.7325C71.4586 21.5535 71.1717 21.464 70.8279 21.464C70.4984 21.464 70.2186 21.5507 69.9885 21.724C69.7583 21.8973 69.5836 22.1402 69.4643 22.4527C69.3478 22.7652 69.2896 23.1331 69.2896 23.5564ZM77.1507 26.9612C76.736 26.9612 76.3624 26.8873 76.03 26.7396C75.7005 26.589 75.4391 26.3675 75.2459 26.0748C75.0556 25.7822 74.9604 25.4214 74.9604 24.9925C74.9604 24.6231 75.0286 24.3177 75.165 24.0763C75.3013 23.8348 75.4874 23.6416 75.7232 23.4967C75.959 23.3518 76.2246 23.2425 76.5201 23.1686C76.8184 23.0919 77.1266 23.0365 77.4448 23.0024C77.8283 22.9626 78.1394 22.9271 78.378 22.8959C78.6167 22.8618 78.79 22.8106 78.8979 22.7425C79.0087 22.6714 79.0641 22.5621 79.0641 22.4143V22.3888C79.0641 22.0677 78.9689 21.8192 78.7786 21.643C78.5882 21.4669 78.3141 21.3788 77.9561 21.3788C77.5783 21.3788 77.2786 21.4612 77.057 21.626C76.8382 21.7907 76.6905 21.9854 76.6138 22.2098L75.1735 22.0052C75.2871 21.6075 75.4746 21.2751 75.736 21.0081C75.9973 20.7382 76.3169 20.5365 76.6948 20.403C77.0726 20.2666 77.4902 20.1984 77.9476 20.1984C78.263 20.1984 78.5769 20.2354 78.8894 20.3092C79.2019 20.3831 79.4874 20.5052 79.7459 20.6757C80.0044 20.8433 80.2118 21.072 80.3681 21.3618C80.5272 21.6515 80.6067 22.0138 80.6067 22.4484V26.8291H79.1238V25.93H79.0726C78.9789 26.1118 78.8468 26.2822 78.6763 26.4413C78.5087 26.5976 78.2971 26.724 78.0414 26.8206C77.7885 26.9143 77.4917 26.9612 77.1507 26.9612ZM77.5513 25.8277C77.861 25.8277 78.1294 25.7666 78.3567 25.6444C78.584 25.5194 78.7587 25.3547 78.8809 25.1501C79.0059 24.9456 79.0684 24.7226 79.0684 24.4811V23.7098C79.0201 23.7496 78.9377 23.7865 78.8212 23.8206C78.7076 23.8547 78.5797 23.8845 78.4377 23.9101C78.2956 23.9356 78.155 23.9584 78.0158 23.9782C77.8766 23.9981 77.7559 24.0152 77.6536 24.0294C77.4235 24.0606 77.2175 24.1118 77.0357 24.1828C76.8539 24.2538 76.7104 24.3532 76.6053 24.4811C76.5002 24.6061 76.4476 24.768 76.4476 24.9669C76.4476 25.251 76.5513 25.4655 76.7587 25.6104C76.9661 25.7552 77.2303 25.8277 77.5513 25.8277ZM83.7005 22.9939V26.8291H82.1578V18.1018H83.6664V21.3959H83.7431C83.8965 21.0265 84.1337 20.7354 84.4547 20.5223C84.7786 20.3064 85.1905 20.1984 85.6905 20.1984C86.1451 20.1984 86.5414 20.2936 86.8794 20.4839C87.2175 20.6743 87.4789 20.9527 87.6635 21.3192C87.851 21.6856 87.9448 22.1331 87.9448 22.6615V26.8291H86.4022V22.9001C86.4022 22.4598 86.2885 22.1175 86.0613 21.8731C85.8368 21.626 85.5215 21.5024 85.1152 21.5024C84.8425 21.5024 84.5982 21.5621 84.3823 21.6814C84.1692 21.7979 84.0016 21.9669 83.8794 22.1885C83.7601 22.4101 83.7005 22.6785 83.7005 22.9939ZM92.562 18.1018H94.4966L97.0875 24.4257H97.1898L99.7807 18.1018H101.715V26.8291H100.198V20.8334H100.117L97.7054 26.8035H96.5719L94.16 20.8206H94.079V26.8291H92.562V18.1018ZM103.369 26.8291V20.2836H104.911V26.8291H103.369ZM104.144 19.3547C103.9 19.3547 103.69 19.2737 103.514 19.1118C103.338 18.947 103.249 18.7496 103.249 18.5194C103.249 18.2865 103.338 18.089 103.514 17.9271C103.69 17.7623 103.9 17.68 104.144 17.68C104.392 17.68 104.602 17.7623 104.775 17.9271C104.951 18.089 105.039 18.2865 105.039 18.5194C105.039 18.7496 104.951 18.947 104.775 19.1118C104.602 19.2737 104.392 19.3547 104.144 19.3547ZM111.671 22.0138L110.265 22.1672C110.225 22.0251 110.155 21.8916 110.056 21.7666C109.959 21.6416 109.829 21.5407 109.664 21.464C109.499 21.3873 109.297 21.349 109.059 21.349C108.738 21.349 108.468 21.4186 108.249 21.5578C108.033 21.697 107.927 21.8774 107.93 22.099C107.927 22.2893 107.996 22.4442 108.138 22.5635C108.283 22.6828 108.522 22.7808 108.854 22.8575L109.971 23.0961C110.59 23.2297 111.05 23.4413 111.351 23.7311C111.655 24.0209 111.809 24.4001 111.812 24.8689C111.809 25.2808 111.688 25.6444 111.449 25.9598C111.214 26.2723 110.885 26.5166 110.465 26.6927C110.045 26.8689 109.562 26.9569 109.016 26.9569C108.215 26.9569 107.57 26.7893 107.081 26.4541C106.593 26.116 106.302 25.6459 106.208 25.0436L107.712 24.8987C107.78 25.1942 107.925 25.4172 108.147 25.5677C108.368 25.7183 108.657 25.7936 109.012 25.7936C109.378 25.7936 109.672 25.7183 109.894 25.5677C110.118 25.4172 110.231 25.2311 110.231 25.0095C110.231 24.822 110.158 24.6672 110.013 24.545C109.871 24.4229 109.65 24.3291 109.349 24.2638L108.232 24.0294C107.604 23.8987 107.14 23.6785 106.839 23.3689C106.537 23.0564 106.388 22.6615 106.391 22.1842C106.388 21.7808 106.498 21.4314 106.719 21.1359C106.944 20.8376 107.255 20.6075 107.653 20.4456C108.053 20.2808 108.515 20.1984 109.037 20.1984C109.805 20.1984 110.408 20.3618 110.849 20.6885C111.292 21.0152 111.566 21.4569 111.671 22.0138ZM113.084 26.8291V20.2836H114.626V26.8291H113.084ZM113.859 19.3547C113.615 19.3547 113.405 19.2737 113.229 19.1118C113.052 18.947 112.964 18.7496 112.964 18.5194C112.964 18.2865 113.052 18.089 113.229 17.9271C113.405 17.7623 113.615 17.68 113.859 17.68C114.106 17.68 114.317 17.7623 114.49 17.9271C114.666 18.089 114.754 18.2865 114.754 18.5194C114.754 18.7496 114.666 18.947 114.49 19.1118C114.317 19.2737 114.106 19.3547 113.859 19.3547Z" fill="black"/>
</g>
<defs>
<filter id="filter0_d_1522_827" x="-7.38721" y="-2.78321" width="156.556" height="53.4992" filterUnits="userSpaceOnUse" color-interpolation-filters="sRGB">
<feFlood flood-opacity="0" result="BackgroundImageFix"/>
<feColorMatrix in="SourceAlpha" type="matrix" values="0 0 0 0 0 0 0 0 0 0 0 0 0 0 0 0 0 0 127 0" result="hardAlpha"/>
<feOffset dx="9.08679" dy="3.02893"/>
<feGaussianBlur stdDeviation="3.81645"/>
<feComposite in2="hardAlpha" operator="out"/>
<feColorMatrix type="matrix" values="0 0 0 0 0.187457 0 0 0 0 0.00104136 0 0 0 0 0.00839984 0 0 0 0.3 0"/>
<feBlend mode="normal" in2="BackgroundImageFix" result="effect1_dropShadow_1522_827"/>
<feBlend mode="normal" in="SourceGraphic" in2="effect1_dropShadow_1522_827" result="shape"/>
</filter>
<clipPath id="bgblur_0_1522_827_clip_path" transform="translate(7.38721 2.78321)"><rect x="0.224609" y="4.8291" width="132" height="35" rx="12"/>
</clipPath><linearGradient id="paint0_linear_1522_827" x1="16.7246" y1="-3.61917" x2="127.701" y2="46.6952" gradientUnits="userSpaceOnUse">
<stop stop-color="#CECECE"/>
<stop offset="1" stop-color="#D1CDCD"/>
</linearGradient>
<linearGradient id="paint1_linear_1522_827" x1="0.224609" y1="22.3291" x2="132.225" y2="22.3291" gradientUnits="userSpaceOnUse">
<stop stop-color="#FB5555" stop-opacity="0.48"/>
<stop offset="0.5" stop-color="#E83737"/>
<stop offset="1" stop-color="#ED0000"/>
</linearGradient>
</defs>
</svg>
