<svg width="58" height="51" viewBox="0 0 58 51" fill="none" xmlns="http://www.w3.org/2000/svg">
<path d="M32.3934 2.125L56.8564 44.4947C57.2294 45.1408 57.4258 45.8736 57.4258 46.6196C57.4258 47.3657 57.2295 48.0986 56.8564 48.7446C56.4834 49.3907 55.947 49.9272 55.3009 50.3002C54.6548 50.6733 53.9219 50.8697 53.1759 50.8697H4.24989C3.50387 50.8697 2.771 50.6733 2.12493 50.3002C1.47886 49.9272 0.942368 49.3907 0.569365 48.7446C0.196362 48.0986 -4.73803e-06 47.3657 0 46.6196C4.73821e-06 45.8736 0.196381 45.1408 0.569392 44.4947L25.0324 2.125C26.6672 -0.708334 30.7557 -0.708334 32.3934 2.125ZM28.7129 35.7057C27.9615 35.7057 27.2408 36.0042 26.7094 36.5355C26.1781 37.0669 25.8796 37.7876 25.8796 38.539C25.8796 39.2905 26.1781 40.0111 26.7094 40.5425C27.2408 41.0738 27.9615 41.3723 28.7129 41.3723C29.4644 41.3723 30.185 41.0738 30.7164 40.5425C31.2477 40.0111 31.5462 39.2905 31.5462 38.539C31.5462 37.7876 31.2477 37.0669 30.7164 36.5355C30.185 36.0042 29.4644 35.7057 28.7129 35.7057ZM28.7129 15.8723C28.0189 15.8724 27.3491 16.1272 26.8305 16.5884C26.3119 17.0495 25.9806 17.685 25.8994 18.3742L25.8796 18.7057V30.039C25.8804 30.7612 26.1569 31.4558 26.6526 31.9809C27.1484 32.506 27.8259 32.822 28.5469 32.8643C29.2678 32.9067 29.9776 32.6721 30.5314 32.2086C31.0852 31.7451 31.4411 31.0876 31.5264 30.3705L31.5462 30.039V18.7057C31.5462 17.9542 31.2477 17.2336 30.7164 16.7022C30.185 16.1709 29.4644 15.8723 28.7129 15.8723Z" fill="#C99700"/>
</svg>
