<svg width="22" height="18" viewBox="0 0 22 18" fill="none" xmlns="http://www.w3.org/2000/svg">
<path d="M2.75 8.25C2.38533 8.25 2.03559 8.10513 1.77773 7.84727C1.51987 7.58941 1.375 7.23967 1.375 6.875V2.75C1.375 2.38533 1.51987 2.03559 1.77773 1.77773C2.03559 1.51987 2.38533 1.375 2.75 1.375H19.25C19.6147 1.375 19.9644 1.51987 20.2223 1.77773C20.4801 2.03559 20.625 2.38533 20.625 2.75V6.875C20.625 7.23967 20.4801 7.58941 20.2223 7.84727C19.9644 8.10513 19.6147 8.25 19.25 8.25H2.75ZM20.625 11V15.125C20.625 15.4897 20.4801 15.8394 20.2223 16.0973C19.9644 16.3551 19.6147 16.5 19.25 16.5H2.75C2.38533 16.5 2.03559 16.3551 1.77773 16.0973C1.51987 15.8394 1.375 15.4897 1.375 15.125V11C1.375 10.6353 1.51987 10.2856 1.77773 10.0277C2.03559 9.76987 2.38533 9.625 2.75 9.625H19.25C19.6147 9.625 19.9644 9.76987 20.2223 10.0277C20.4801 10.2856 20.625 10.6353 20.625 11ZM22 6.875V2.75C22 2.02065 21.7103 1.32118 21.1945 0.805456C20.6788 0.289731 19.9793 0 19.25 0L2.75 0C2.02065 0 1.32118 0.289731 0.805456 0.805456C0.289731 1.32118 0 2.02065 0 2.75L0 6.875C0 7.70138 0.372625 8.43287 0.94875 8.9375C0.372625 9.44213 0 10.1736 0 11V15.125C0 15.8543 0.289731 16.5538 0.805456 17.0695C1.32118 17.5853 2.02065 17.875 2.75 17.875H19.25C19.9793 17.875 20.6788 17.5853 21.1945 17.0695C21.7103 16.5538 22 15.8543 22 15.125V11C22 10.1736 21.6274 9.44213 21.0526 8.9375C21.6274 8.43287 22 7.70138 22 6.875Z" fill="black"/>
<path d="M6.1875 15.125C7.32659 15.125 8.25 14.2016 8.25 13.0625C8.25 11.9234 7.32659 11 6.1875 11C5.04841 11 4.125 11.9234 4.125 13.0625C4.125 14.2016 5.04841 15.125 6.1875 15.125Z" fill="black"/>
<path d="M6.1875 6.875C7.32659 6.875 8.25 5.95159 8.25 4.8125C8.25 3.67341 7.32659 2.75 6.1875 2.75C5.04841 2.75 4.125 3.67341 4.125 4.8125C4.125 5.95159 5.04841 6.875 6.1875 6.875Z" fill="black"/>
<path fill-rule="evenodd" clip-rule="evenodd" d="M16.5 11H17.875V15.125H16.5V11ZM13.75 11H15.125V15.125H13.75V11ZM16.5 2.75H17.875V6.875H16.5V2.75ZM13.75 2.75H15.125V6.875H13.75V2.75Z" fill="black"/>
</svg>
