<svg width="14" height="17" viewBox="0 0 14 17" fill="none" xmlns="http://www.w3.org/2000/svg">
<path d="M8.5775 0.243989C8.73377 0.0877628 8.9457 0 9.16667 0C9.38764 0 9.59956 0.0877628 9.75583 0.243989L13.0892 3.57732C13.2454 3.7336 13.3332 3.94552 13.3332 4.16649C13.3332 4.38746 13.2454 4.59938 13.0892 4.75566L9.75583 8.08899C9.59866 8.24079 9.38816 8.32478 9.16967 8.32288C8.95117 8.32098 8.74216 8.23334 8.58765 8.07884C8.43314 7.92433 8.3455 7.71532 8.34361 7.49682C8.34171 7.27833 8.4257 7.06782 8.5775 6.91066L10.4883 4.99982H0.833333C0.61232 4.99982 0.400358 4.91202 0.244078 4.75574C0.0877975 4.59946 0 4.3875 0 4.16649C0 3.94548 0.0877975 3.73351 0.244078 3.57723C0.400358 3.42095 0.61232 3.33316 0.833333 3.33316H10.4883L8.5775 1.42232C8.42127 1.26605 8.33351 1.05413 8.33351 0.833155C8.33351 0.612185 8.42127 0.400262 8.5775 0.243989ZM4.75583 8.57732C4.91206 8.7336 4.99982 8.94552 4.99982 9.16649C4.99982 9.38746 4.91206 9.59938 4.75583 9.75566L2.845 11.6665H12.5C12.721 11.6665 12.933 11.7543 13.0893 11.9106C13.2455 12.0668 13.3333 12.2788 13.3333 12.4998C13.3333 12.7208 13.2455 12.9328 13.0893 13.0891C12.933 13.2454 12.721 13.3332 12.5 13.3332H2.845L4.75583 15.244C4.90763 15.4012 4.99163 15.6117 4.98973 15.8302C4.98783 16.0487 4.90019 16.2577 4.74568 16.4122C4.59118 16.5667 4.38216 16.6543 4.16367 16.6562C3.94517 16.6581 3.73467 16.5741 3.5775 16.4223L0.244167 13.089C0.087941 12.9327 0.000178019 12.7208 0.000178019 12.4998C0.000178019 12.2789 0.087941 12.0669 0.244167 11.9107L3.5775 8.57732C3.73377 8.4211 3.9457 8.33333 4.16667 8.33333C4.38764 8.33333 4.59956 8.4211 4.75583 8.57732Z" fill="white"/>
</svg>
