<svg width="18" height="18" viewBox="0 0 18 18" fill="none" xmlns="http://www.w3.org/2000/svg">
<path d="M11.25 7.5L14.6647 5.793C14.7791 5.73588 14.9061 5.70891 15.0337 5.71466C15.1614 5.72041 15.2855 5.75869 15.3942 5.82585C15.5029 5.89302 15.5927 5.98686 15.6549 6.09845C15.7172 6.21005 15.7499 6.33571 15.75 6.4635V11.5365C15.7499 11.6643 15.7172 11.79 15.6549 11.9015C15.5927 12.0131 15.5029 12.107 15.3942 12.1741C15.2855 12.2413 15.1614 12.2796 15.0337 12.2853C14.9061 12.2911 14.7791 12.2641 14.6647 12.207L11.25 10.5V7.5ZM2.25 6C2.25 5.60218 2.40804 5.22064 2.68934 4.93934C2.97064 4.65804 3.35218 4.5 3.75 4.5H9.75C10.1478 4.5 10.5294 4.65804 10.8107 4.93934C11.092 5.22064 11.25 5.60218 11.25 6V12C11.25 12.3978 11.092 12.7794 10.8107 13.0607C10.5294 13.342 10.1478 13.5 9.75 13.5H3.75C3.35218 13.5 2.97064 13.342 2.68934 13.0607C2.40804 12.7794 2.25 12.3978 2.25 12V6Z" stroke="white" stroke-width="1.5" stroke-linecap="round" stroke-linejoin="round"/>
</svg>
