<svg width="22" height="22" viewBox="0 0 22 22" fill="none" xmlns="http://www.w3.org/2000/svg">
<path d="M2.75 11C2.38533 11 2.03559 10.8551 1.77773 10.5973C1.51987 10.3394 1.375 9.98967 1.375 9.625V5.5C1.375 5.13533 1.51987 4.78559 1.77773 4.52773C2.03559 4.26987 2.38533 4.125 2.75 4.125H19.25C19.6147 4.125 19.9644 4.26987 20.2223 4.52773C20.4801 4.78559 20.625 5.13533 20.625 5.5V9.625C20.625 9.98967 20.4801 10.3394 20.2223 10.5973C19.9644 10.8551 19.6147 11 19.25 11H2.75ZM20.625 13.75V17.875C20.625 18.2397 20.4801 18.5894 20.2223 18.8473C19.9644 19.1051 19.6147 19.25 19.25 19.25H2.75C2.38533 19.25 2.03559 19.1051 1.77773 18.8473C1.51987 18.5894 1.375 18.2397 1.375 17.875V13.75C1.375 13.3853 1.51987 13.0356 1.77773 12.7777C2.03559 12.5199 2.38533 12.375 2.75 12.375H19.25C19.6147 12.375 19.9644 12.5199 20.2223 12.7777C20.4801 13.0356 20.625 13.3853 20.625 13.75ZM22 9.625V5.5C22 4.77065 21.7103 4.07118 21.1945 3.55546C20.6788 3.03973 19.9793 2.75 19.25 2.75H2.75C2.02065 2.75 1.32118 3.03973 0.805456 3.55546C0.289731 4.07118 0 4.77065 0 5.5L0 9.625C0 10.4514 0.372625 11.1829 0.94875 11.6875C0.372625 12.1921 0 12.9236 0 13.75V17.875C0 18.6043 0.289731 19.3038 0.805456 19.8195C1.32118 20.3353 2.02065 20.625 2.75 20.625H19.25C19.9793 20.625 20.6788 20.3353 21.1945 19.8195C21.7103 19.3038 22 18.6043 22 17.875V13.75C22 12.9236 21.6274 12.1921 21.0526 11.6875C21.6274 11.1829 22 10.4514 22 9.625Z" fill="#ABABAB"/>
<path d="M6.1875 17.875C7.32659 17.875 8.25 16.9516 8.25 15.8125C8.25 14.6734 7.32659 13.75 6.1875 13.75C5.04841 13.75 4.125 14.6734 4.125 15.8125C4.125 16.9516 5.04841 17.875 6.1875 17.875Z" fill="#ABABAB"/>
<path d="M6.1875 9.625C7.32659 9.625 8.25 8.70159 8.25 7.5625C8.25 6.42341 7.32659 5.5 6.1875 5.5C5.04841 5.5 4.125 6.42341 4.125 7.5625C4.125 8.70159 5.04841 9.625 6.1875 9.625Z" fill="#ABABAB"/>
<path fill-rule="evenodd" clip-rule="evenodd" d="M16.5 13.75H17.875V17.875H16.5V13.75ZM13.75 13.75H15.125V17.875H13.75V13.75ZM16.5 5.5H17.875V9.625H16.5V5.5ZM13.75 5.5H15.125V9.625H13.75V5.5Z" fill="#ABABAB"/>
</svg>
