<svg width="35" height="35" viewBox="0 0 35 35" fill="none" xmlns="http://www.w3.org/2000/svg">
<rect width="35" height="35" rx="17.5" fill="#F4F1F1"/>
<path d="M21.5643 18.0003V16.5753C21.5648 15.6122 21.2405 14.6771 20.6437 13.9211C20.0469 13.1652 19.2126 12.6326 18.2757 12.4096C18.2827 12.3819 18.2883 12.3539 18.2923 12.3256V10.4541C18.2923 10.2442 18.2089 10.0428 18.0604 9.89435C17.912 9.74588 17.7106 9.66248 17.5007 9.66248C17.2907 9.66248 17.0893 9.74588 16.9409 9.89435C16.7924 10.0428 16.709 10.2442 16.709 10.4541V12.3256C16.713 12.3539 16.7186 12.3819 16.7256 12.4096C15.7887 12.6326 14.9544 13.1652 14.3576 13.9211C13.7608 14.6771 13.4365 15.6122 13.437 16.5753V18.0003C13.437 19.8892 11.959 20.3611 11.959 21.3055C11.959 21.775 11.959 22.25 12.3849 22.25H22.6164C23.0423 22.25 23.0423 21.775 23.0423 21.3055C23.0423 20.3611 21.5643 19.8892 21.5643 18.0003ZM14.9855 23.0416C15.1955 23.5349 15.5459 23.9555 15.9931 24.2511C16.4403 24.5467 16.9646 24.7044 17.5007 24.7044C18.0367 24.7044 18.561 24.5467 19.0082 24.2511C19.4554 23.9555 19.8058 23.5349 20.0158 23.0416H14.9855Z" fill="black"/>
</svg>
