<svg width="16" height="16" viewBox="0 0 16 16" fill="none" xmlns="http://www.w3.org/2000/svg">
<path d="M15.7987 1.26129C15.9312 1.11912 16.0033 0.93107 15.9999 0.736769C15.9965 0.542468 15.9177 0.357083 15.7803 0.21967C15.6429 0.0822571 15.4575 0.00354506 15.2632 0.000116847C15.0689 -0.00331137 14.8809 0.0688118 14.7387 0.201292L12.2927 2.64629C11.5155 2.11727 10.5782 1.87587 9.64212 1.96367C8.70608 2.05147 7.82996 2.46297 7.16471 3.12729L6.86471 3.42729C6.72623 3.56567 6.61637 3.72997 6.54142 3.91082C6.46646 4.09168 6.42789 4.28552 6.42789 4.48129C6.42789 4.67706 6.46646 4.87091 6.54142 5.05176C6.61637 5.23261 6.72623 5.39692 6.86471 5.53529L10.4647 9.13529C10.7441 9.41467 11.1231 9.57161 11.5182 9.57161C11.9133 9.57161 12.2923 9.41467 12.5717 9.13529L12.8717 8.83529C13.5362 8.17016 13.9479 7.29411 14.0359 6.35806C14.1238 5.42202 13.8826 4.48459 13.3537 3.70729L15.7987 1.26129ZM5.57271 6.82729C5.29329 6.54792 4.91434 6.39097 4.51921 6.39097C4.12408 6.39097 3.74513 6.54792 3.46571 6.82729L3.16571 7.12729C2.50139 7.79255 2.08988 8.66866 2.00208 9.6047C1.91428 10.5407 2.15569 11.4781 2.68471 12.2553L0.238708 14.7013C0.165021 14.77 0.105919 14.8528 0.0649274 14.9448C0.0239354 15.0368 0.00189351 15.1361 0.000116722 15.2368C-0.00166006 15.3375 0.0168645 15.4375 0.0545855 15.5309C0.0923065 15.6243 0.148451 15.7091 0.21967 15.7803C0.290889 15.8515 0.375723 15.9077 0.469111 15.9454C0.562499 15.9831 0.662528 16.0017 0.763231 15.9999C0.863934 15.9981 0.963247 15.9761 1.05525 15.9351C1.14725 15.8941 1.23005 15.835 1.29871 15.7613L3.74471 13.3153C4.52178 13.8444 5.45907 14.086 6.39511 13.9984C7.33115 13.9108 8.20733 13.4995 8.87271 12.8353L9.17271 12.5353C9.31119 12.3969 9.42105 12.2326 9.496 12.0518C9.57095 11.8709 9.60953 11.6771 9.60953 11.4813C9.60953 11.2855 9.57095 11.0917 9.496 10.9108C9.42105 10.73 9.31119 10.5657 9.17271 10.4273L5.57271 6.82729Z" fill="white"/>
</svg>
