<svg width="18" height="18" viewBox="0 0 18 18" fill="none" xmlns="http://www.w3.org/2000/svg">
<path d="M9 11.25C10.2426 11.25 11.25 10.2426 11.25 9C11.25 7.75736 10.2426 6.75 9 6.75C7.75736 6.75 6.75 7.75736 6.75 9C6.75 10.2426 7.75736 11.25 9 11.25Z" stroke="white" stroke-width="1.125"/>
<path d="M10.3236 1.614C10.0483 1.5 9.69885 1.5 8.99985 1.5C8.30085 1.5 7.95135 1.5 7.6761 1.614C7.49399 1.68938 7.32851 1.79992 7.18914 1.93929C7.04977 2.07866 6.93923 2.24414 6.86385 2.42625C6.79485 2.5935 6.7671 2.78925 6.7566 3.0735C6.75172 3.27895 6.6948 3.4798 6.59118 3.65727C6.48756 3.83473 6.34062 3.98302 6.1641 4.08825C5.9847 4.18858 5.78279 4.24175 5.57725 4.2428C5.37171 4.24385 5.16926 4.19274 4.98885 4.09425C4.73685 3.96075 4.5546 3.88725 4.37385 3.86325C3.97959 3.8114 3.58087 3.91823 3.26535 4.16025C3.02985 4.3425 2.85435 4.64475 2.50485 5.25C2.15535 5.85525 1.97985 6.1575 1.9416 6.45375C1.91583 6.64909 1.92879 6.84759 1.97975 7.03792C2.03071 7.22825 2.11867 7.40667 2.2386 7.563C2.3496 7.707 2.50485 7.82775 2.7456 7.97925C3.10035 8.202 3.32835 8.5815 3.32835 9C3.32835 9.4185 3.10035 9.798 2.7456 10.02C2.50485 10.1722 2.34885 10.293 2.2386 10.437C2.11867 10.5933 2.03071 10.7718 1.97975 10.9621C1.92879 11.1524 1.91583 11.3509 1.9416 11.5463C1.9806 11.8418 2.15535 12.1448 2.5041 12.75C2.85435 13.3552 3.0291 13.6575 3.26535 13.8397C3.42168 13.9597 3.6001 14.0476 3.79043 14.0986C3.98076 14.1496 4.17926 14.1625 4.3746 14.1368C4.5546 14.1128 4.73685 14.0393 4.98885 13.9058C5.16926 13.8073 5.37171 13.7561 5.57725 13.7572C5.78279 13.7582 5.9847 13.8114 6.1641 13.9117C6.52635 14.1217 6.7416 14.508 6.7566 14.9265C6.7671 15.2115 6.7941 15.4065 6.86385 15.5737C6.93923 15.7559 7.04977 15.9213 7.18914 16.0607C7.32851 16.2001 7.49399 16.3106 7.6761 16.386C7.95135 16.5 8.30085 16.5 8.99985 16.5C9.69885 16.5 10.0483 16.5 10.3236 16.386C10.5057 16.3106 10.6712 16.2001 10.8106 16.0607C10.9499 15.9213 11.0605 15.7559 11.1358 15.5737C11.2048 15.4065 11.2326 15.2115 11.2431 14.9265C11.2581 14.508 11.4733 14.121 11.8356 13.9117C12.015 13.8114 12.2169 13.7582 12.4225 13.7572C12.628 13.7561 12.8304 13.8073 13.0108 13.9058C13.2628 14.0393 13.4451 14.1128 13.6251 14.1368C13.8204 14.1625 14.0189 14.1496 14.2093 14.0986C14.3996 14.0476 14.578 13.9597 14.7343 13.8397C14.9706 13.6582 15.1453 13.3552 15.4948 12.75C15.8443 12.1448 16.0198 11.8425 16.0581 11.5463C16.0839 11.3509 16.0709 11.1524 16.0199 10.9621C15.969 10.7718 15.881 10.5933 15.7611 10.437C15.6501 10.293 15.4948 10.1723 15.2541 10.0208C15.0785 9.9138 14.933 9.76405 14.8311 9.58553C14.7292 9.40701 14.6742 9.20555 14.6713 9C14.6713 8.5815 14.8993 8.202 15.2541 7.98C15.4948 7.82775 15.6508 7.707 15.7611 7.563C15.881 7.40667 15.969 7.22825 16.0199 7.03792C16.0709 6.84759 16.0839 6.64909 16.0581 6.45375C16.0191 6.15825 15.8443 5.85525 15.4956 5.25C15.1453 4.64475 14.9706 4.3425 14.7343 4.16025C14.578 4.04032 14.3996 3.95236 14.2093 3.9014C14.0189 3.85044 13.8204 3.83748 13.6251 3.86325C13.4451 3.88725 13.2628 3.96075 13.0101 4.09425C12.8298 4.19261 12.6275 4.24365 12.4221 4.2426C12.2167 4.24155 12.0149 4.18844 11.8356 4.08825C11.6591 3.98302 11.5121 3.83473 11.4085 3.65727C11.3049 3.4798 11.248 3.27895 11.2431 3.0735C11.2326 2.7885 11.2056 2.5935 11.1358 2.42625C11.0605 2.24414 10.9499 2.07866 10.8106 1.93929C10.6712 1.79992 10.5057 1.68938 10.3236 1.614Z" stroke="white" stroke-width="1.125"/>
</svg>
