<svg width="16" height="16" viewBox="0 0 16 16" fill="none" xmlns="http://www.w3.org/2000/svg">
<path fill-rule="evenodd" clip-rule="evenodd" d="M6.8801 6.76862C6.81983 6.83215 6.74764 6.88319 6.66764 6.91881C6.58764 6.95444 6.50141 6.97395 6.41387 6.97624C6.32633 6.97853 6.2392 6.96355 6.15745 6.93216C6.0757 6.90077 6.00094 6.85358 5.93743 6.79329L2.04143 3.09796C1.91315 2.97613 1.83853 2.80834 1.83396 2.6315C1.8294 2.45465 1.89527 2.28323 2.0171 2.15496C2.13892 2.02668 2.30671 1.95205 2.48356 1.94749C2.6604 1.94292 2.83182 2.0088 2.9601 2.13062L6.85543 5.82596C6.91896 5.88622 6.97 5.95842 7.00562 6.03841C7.04124 6.11841 7.06076 6.20464 7.06305 6.29218C7.06534 6.37972 7.05036 6.46685 7.01897 6.5486C6.98758 6.63035 6.94039 6.70511 6.8801 6.76862Z" fill="white"/>
<path fill-rule="evenodd" clip-rule="evenodd" d="M6.86462 6.78392C6.92733 6.72193 6.97712 6.64812 7.01111 6.56675C7.0451 6.48539 7.06261 6.39809 7.06262 6.30992V3.94792C7.06262 3.77111 6.99239 3.60154 6.86736 3.47651C6.74234 3.35149 6.57277 3.28125 6.39596 3.28125C6.21915 3.28125 6.04958 3.35149 5.92455 3.47651C5.79953 3.60154 5.72929 3.77111 5.72929 3.94792V5.63592L3.84129 5.61458C3.75374 5.61362 3.66686 5.62991 3.58561 5.66252C3.50436 5.69514 3.43032 5.74344 3.36774 5.80466C3.30515 5.86588 3.25524 5.93884 3.22084 6.01935C3.18645 6.09987 3.16825 6.18637 3.16729 6.27392C3.16633 6.36146 3.18262 6.44834 3.21523 6.5296C3.24784 6.61085 3.29614 6.68488 3.35737 6.74747C3.41859 6.81006 3.49154 6.85997 3.57206 6.89436C3.65257 6.92876 3.73908 6.94695 3.82662 6.94792L6.38862 6.97658C6.47681 6.97744 6.56429 6.9608 6.646 6.92761C6.7277 6.89443 6.80201 6.84602 6.86462 6.78392ZM6.87996 9.42258C6.81969 9.35905 6.7475 9.30802 6.6675 9.27239C6.5875 9.23677 6.50127 9.21725 6.41373 9.21496C6.32619 9.21267 6.23906 9.22765 6.15731 9.25904C6.07556 9.29043 6.0008 9.33762 5.93729 9.39792L2.04129 13.0932C1.91301 13.215 1.83835 13.3827 1.83372 13.5595C1.8291 13.7363 1.89489 13.9076 2.01662 14.0359C2.13836 14.1642 2.30606 14.2389 2.48285 14.2435C2.65963 14.2481 2.83101 14.1823 2.95929 14.0606L6.85462 10.3652C6.91815 10.305 6.96919 10.2328 7.00481 10.1528C7.04044 10.0728 7.05995 9.98657 7.06224 9.89903C7.06453 9.81149 7.04955 9.72435 7.01816 9.6426C6.98677 9.56085 6.94025 9.48609 6.87996 9.42258Z" fill="white"/>
<path fill-rule="evenodd" clip-rule="evenodd" d="M6.86461 9.4073C6.92732 9.46929 6.97711 9.5431 7.0111 9.62447C7.04508 9.70583 7.06259 9.79313 7.06261 9.8813V12.2433C7.06261 12.4201 6.99237 12.5897 6.86735 12.7147C6.74232 12.8397 6.57275 12.91 6.39594 12.91C6.21913 12.91 6.04956 12.8397 5.92454 12.7147C5.79951 12.5897 5.72928 12.4201 5.72928 12.2433V10.556L3.84128 10.5766C3.66447 10.5786 3.49412 10.5102 3.36772 10.3866C3.24132 10.2629 3.16922 10.0941 3.16728 9.9173C3.16533 9.74049 3.2337 9.57015 3.35735 9.44375C3.481 9.31735 3.6498 9.24525 3.82661 9.2433L6.38861 9.2153C6.4767 9.21427 6.56413 9.2307 6.64583 9.26366C6.72753 9.29661 6.80189 9.34544 6.86461 9.4073ZM9.19794 6.76864C9.31964 6.89674 9.48721 6.9713 9.66384 6.97592C9.84047 6.98055 10.0117 6.91486 10.1399 6.7933L14.0359 3.09797C14.1642 2.97624 14.2389 2.80853 14.2435 2.63175C14.2481 2.45496 14.1823 2.28358 14.0606 2.1553C13.9389 2.02703 13.7712 1.95236 13.5944 1.94774C13.4176 1.94311 13.2462 2.0089 13.1179 2.13064L9.22261 5.82597C9.15908 5.88624 9.10804 5.95843 9.07242 6.03843C9.0368 6.11842 9.01728 6.20465 9.01499 6.29219C9.0127 6.37973 9.02768 6.46687 9.05907 6.54862C9.09046 6.63036 9.13765 6.70513 9.19794 6.76864Z" fill="white"/>
<path fill-rule="evenodd" clip-rule="evenodd" d="M9.21331 6.78392C9.15048 6.72198 9.10057 6.6482 9.06647 6.56683C9.03237 6.48547 9.01475 6.39814 9.01465 6.30992V3.94792C9.01465 3.77111 9.08489 3.60154 9.20991 3.47651C9.33493 3.35149 9.5045 3.28125 9.68132 3.28125C9.85813 3.28125 10.0277 3.35149 10.1527 3.47651C10.2777 3.60154 10.348 3.77111 10.348 3.94792V5.63592L12.2366 5.61458C12.4135 5.61264 12.5838 5.68101 12.7102 5.80466C12.8366 5.92831 12.9087 6.09711 12.9106 6.27392C12.9126 6.45073 12.8442 6.62107 12.7206 6.74747C12.5969 6.87387 12.4281 6.94597 12.2513 6.94792L9.68865 6.97658C9.60046 6.97744 9.51298 6.9608 9.43128 6.92761C9.34957 6.89443 9.27526 6.84536 9.21265 6.78325L9.21331 6.78392ZM9.19798 9.42258C9.31967 9.29448 9.48725 9.21992 9.66388 9.2153C9.84051 9.21067 10.0118 9.27636 10.14 9.39792L14.036 13.0932C14.1643 13.215 14.2389 13.3827 14.2435 13.5595C14.2482 13.7363 14.1824 13.9076 14.0606 14.0359C13.9389 14.1642 13.7712 14.2389 13.5944 14.2435C13.4176 14.2481 13.2463 14.1823 13.118 14.0606L9.22265 10.3652C9.15912 10.305 9.10808 10.2328 9.07246 10.1528C9.03683 10.0728 9.01732 9.98657 9.01503 9.89903C9.01274 9.81149 9.02772 9.72435 9.05911 9.6426C9.0905 9.56085 9.13769 9.48609 9.19798 9.42258Z" fill="white"/>
<path fill-rule="evenodd" clip-rule="evenodd" d="M9.21331 9.40738C9.15048 9.46931 9.10057 9.5431 9.06647 9.62446C9.03237 9.70583 9.01475 9.79315 9.01465 9.88138V12.2434C9.01465 12.4202 9.08489 12.5898 9.20991 12.7148C9.33493 12.8398 9.5045 12.91 9.68132 12.91C9.85813 12.91 10.0277 12.8398 10.1527 12.7148C10.2777 12.5898 10.348 12.4202 10.348 12.2434V10.556L12.2366 10.5767C12.4135 10.5787 12.5838 10.5103 12.7102 10.3866C12.8366 10.263 12.9087 10.0942 12.9106 9.91738C12.9126 9.74057 12.8442 9.57023 12.7206 9.44383C12.5969 9.31743 12.4281 9.24532 12.2513 9.24338L9.68865 9.21538C9.60056 9.21434 9.51313 9.23078 9.43143 9.26373C9.34973 9.29669 9.27603 9.34551 9.21331 9.40738Z" fill="white"/>
</svg>
