<svg width="40" height="40" viewBox="0 0 40 40" fill="none" xmlns="http://www.w3.org/2000/svg">
<path d="M32.5234 7.47656C29.2188 4.17188 23.8711 4.17188 20.5703 7.47656L16.7852 11.2617L18.7773 13.2539L22.5625 9.46875C24.6641 7.36719 28.2109 7.14453 30.5313 9.46875C32.8555 11.793 32.6328 15.3359 30.5313 17.4375L26.7461 21.2227L28.7422 23.2187L32.5273 19.4336C35.8242 16.1289 35.8242 10.7812 32.5234 7.47656ZM17.4414 30.5312C15.3398 32.6328 11.793 32.8555 9.47266 30.5312C7.14844 28.207 7.37109 24.6641 9.47266 22.5625L13.2578 18.7773L11.2617 16.7812L7.47656 20.5664C4.17187 23.8711 4.17187 29.2187 7.47656 32.5195C10.7813 35.8203 16.1289 35.8242 19.4297 32.5195L23.2148 28.7344L21.2227 26.7422L17.4414 30.5312ZM10.168 8.17969C10.1092 8.12153 10.0299 8.08891 9.94727 8.08891C9.86461 8.08891 9.7853 8.12153 9.72656 8.17969L8.17969 9.72656C8.12153 9.7853 8.08891 9.86461 8.08891 9.94726C8.08891 10.0299 8.12153 10.1092 8.17969 10.168L29.8359 31.8242C29.957 31.9453 30.1563 31.9453 30.2773 31.8242L31.8242 30.2773C31.9453 30.1562 31.9453 29.957 31.8242 29.8359L10.168 8.17969Z" fill="#A9A9A9"/>
</svg>
