<svg width="26" height="26" viewBox="0 0 26 26" fill="none" xmlns="http://www.w3.org/2000/svg">
<path d="M23.3367 5.25347L19.9964 1.91322C19.7542 1.67107 19.4257 1.53503 19.0832 1.53503C18.7407 1.53503 18.4122 1.67107 18.17 1.91322L10.9547 9.12847C10.7126 9.37069 10.5766 9.69917 10.5766 10.0417C10.5766 10.3842 10.7126 10.7127 10.9547 10.9549L14.295 14.2951C14.5372 14.5373 14.8657 14.6733 15.2082 14.6733C15.5507 14.6733 15.8792 14.5373 16.1214 14.2951L23.3367 7.07988C23.5788 6.83766 23.7148 6.50918 23.7148 6.16667C23.7148 5.82417 23.5788 5.49569 23.3367 5.25347Z" fill="#8294B3" stroke="#8294B3" stroke-width="2" stroke-linecap="round" stroke-linejoin="round"/>
<path d="M20.375 10.0417L24.25 13.9167L20.375 17.7917L16.5 13.9167M15.2083 4.875L11.3333 1L7.45833 4.875L11.3333 8.75M12.625 12.625L10.6875 14.5625M9.39583 19.0833C8.53941 19.0833 7.71805 18.7431 7.11247 18.1375C6.50688 17.5319 6.16667 16.7106 6.16667 15.8542M8.75 24.25C6.69457 24.25 4.72333 23.4335 3.26992 21.9801C1.81652 20.5267 1 18.5554 1 16.5" stroke="#8294B3" stroke-width="2" stroke-linecap="round" stroke-linejoin="round"/>
</svg>
