<svg width="24" height="24" viewBox="0 0 24 24" fill="none" xmlns="http://www.w3.org/2000/svg">
<circle cx="12" cy="12" r="11.5" fill="#EBEBEB" stroke="#FC4747"/>
<g clip-path="url(#clip0_578_158)">
<path d="M13.1425 7.42847C13.3487 7.42846 13.551 7.48423 13.7281 7.58986C13.9051 7.69549 14.0503 7.84704 14.1483 8.02847L14.426 8.54275C14.5239 8.72418 14.6691 8.87573 14.8461 8.98136C15.0232 9.08699 15.2255 9.14276 15.4317 9.14275H16.5728C16.8759 9.14275 17.1666 9.26316 17.3809 9.47749C17.5953 9.69182 17.7157 9.98251 17.7157 10.2856V15.4285C17.7157 15.7316 17.5953 16.0223 17.3809 16.2366C17.1666 16.4509 16.8759 16.5713 16.5728 16.5713H7.42997C7.12686 16.5713 6.83617 16.4509 6.62184 16.2366C6.40752 16.0223 6.28711 15.7316 6.28711 15.4285V10.2856C6.28711 9.98251 6.40752 9.69182 6.62184 9.47749C6.83617 9.26316 7.12686 9.14275 7.42997 9.14275H8.57111C8.77706 9.14276 8.9792 9.08712 9.15613 8.9817C9.33306 8.87629 9.47822 8.72502 9.57625 8.5439L9.85568 8.02732C9.95372 7.8462 10.0989 7.69493 10.2758 7.58951C10.4527 7.4841 10.6549 7.42846 10.8608 7.42847H13.1425Z" stroke="black" stroke-width="1.5" stroke-linecap="round" stroke-linejoin="round"/>
<path d="M12.0014 14.2856C12.9482 14.2856 13.7157 13.5181 13.7157 12.5713C13.7157 11.6246 12.9482 10.8571 12.0014 10.8571C11.0546 10.8571 10.2871 11.6246 10.2871 12.5713C10.2871 13.5181 11.0546 14.2856 12.0014 14.2856Z" stroke="black" stroke-width="1.5" stroke-linecap="round" stroke-linejoin="round"/>
</g>
<defs>
<clipPath id="clip0_578_158">
<rect width="13.7143" height="13.7143" fill="white" transform="translate(5.14453 5.14276)"/>
</clipPath>
</defs>
</svg>
