<svg width="31" height="51" viewBox="0 0 31 51" fill="none" xmlns="http://www.w3.org/2000/svg">
<path d="M22.959 38.8515C22.959 39.8745 22.6956 40.8556 22.2268 41.5789C21.7579 42.3023 21.122 42.7087 20.459 42.7087H10.459C9.79594 42.7087 9.16006 42.3023 8.69122 41.5789C8.22238 40.8556 7.95898 39.8745 7.95898 38.8515L7.95898 15.7087H22.959V38.8515Z" fill="#8294B3"/>
<path fill-rule="evenodd" clip-rule="evenodd" d="M0 10.0833L0 42.8542C0 44.8599 0.814321 46.7834 2.26382 48.2017C3.71332 49.6199 5.67926 50.4167 7.72917 50.4167H23.1875C25.2374 50.4167 27.2034 49.6199 28.6528 48.2017C30.1023 46.7834 30.9167 44.8599 30.9167 42.8542L30.9167 10.0833C30.9167 8.07763 30.1023 6.15408 28.6528 4.73584C27.2034 3.31759 25.2374 2.52083 23.1875 2.52083C23.1875 1.85226 22.9161 1.21108 22.4329 0.738331C21.9497 0.265583 21.2944 -3.8147e-06 20.6111 -3.8147e-06H10.3056C9.62226 -3.8147e-06 8.96694 0.265583 8.48377 0.738331C8.00061 1.21108 7.72917 1.85226 7.72917 2.52083C5.67926 2.52083 3.71332 3.31759 2.26382 4.73584C0.814321 6.15408 0 8.07763 0 10.0833ZM5.15278 10.0833L5.15278 42.8542C5.15278 43.5227 5.42422 44.1639 5.90739 44.6367C6.39055 45.1094 7.04587 45.375 7.72917 45.375H23.1875C23.8708 45.375 24.5261 45.1094 25.0093 44.6367C25.4925 44.1639 25.7639 43.5227 25.7639 42.8542L25.7639 10.0833C25.7639 9.41476 25.4925 8.77358 25.0093 8.30083C24.5261 7.82808 23.8708 7.5625 23.1875 7.5625H7.72917C7.04587 7.5625 6.39055 7.82808 5.90739 8.30083C5.42422 8.77358 5.15278 9.41476 5.15278 10.0833Z" fill="#8294B3" fill-opacity="0.3"/>
</svg>
