<svg width="16" height="16" viewBox="0 0 16 16" fill="none" xmlns="http://www.w3.org/2000/svg">
<path d="M15.7613 0.21934C15.9017 0.359965 15.9806 0.550589 15.9806 0.74934C15.9806 0.948091 15.9017 1.13871 15.7613 1.27934L14.3163 2.72534C14.845 3.50244 15.0863 4.43959 14.9985 5.37541C14.9107 6.31123 14.4994 7.18715 13.8353 7.85234L13.5353 8.15234L13.5323 8.15534L13.2233 8.46434C13.0264 8.66097 12.7595 8.77142 12.4813 8.77142C12.203 8.77142 11.9362 8.66097 11.7393 8.46434L7.51629 4.24134C7.41878 4.14384 7.34143 4.02808 7.28865 3.90068C7.23588 3.77328 7.20872 3.63674 7.20872 3.49884C7.20872 3.36094 7.23588 3.2244 7.28865 3.097C7.34143 2.9696 7.41878 2.85384 7.51629 2.75634L8.12729 2.14634C8.30262 1.97167 8.48829 1.81634 8.68429 1.68034C9.35547 1.21641 10.1514 0.96657 10.9673 0.963714C11.7832 0.960858 12.5809 1.20512 13.2553 1.66434L14.7013 0.21934C14.8419 0.0788896 15.0325 0 15.2313 0C15.43 0 15.6207 0.0788896 15.7613 0.21934ZM6.76129 6.46934C6.90174 6.60997 6.98063 6.80059 6.98063 6.99934C6.98063 7.19809 6.90174 7.38871 6.76129 7.52934L5.49129 8.80134L7.18129 10.4913L8.45129 9.21934C8.52044 9.14768 8.60318 9.0905 8.69466 9.05115C8.78614 9.0118 8.88455 8.99107 8.98413 8.99015C9.08372 8.98924 9.18248 9.00817 9.27467 9.04584C9.36686 9.08351 9.45063 9.13916 9.52108 9.20954C9.59153 9.27993 9.64726 9.36364 9.68502 9.4558C9.72277 9.54795 9.74179 9.6467 9.74097 9.74628C9.74016 9.84587 9.71951 9.94429 9.68025 10.0358C9.64099 10.1273 9.58389 10.2101 9.51229 10.2793L8.23629 11.5563C8.47019 11.8424 8.58948 12.2051 8.571 12.5741C8.55252 12.9431 8.3976 13.2921 8.13629 13.5533L7.83629 13.8533C7.17091 14.5175 6.29474 14.9288 5.3587 15.0164C4.42266 15.1041 3.48537 14.8625 2.70829 14.3333L1.26129 15.7793C1.11912 15.9118 0.93107 15.9839 0.736769 15.9805C0.542468 15.9771 0.357083 15.8984 0.21967 15.761C0.0822571 15.6235 0.00354506 15.4382 0.000116847 15.2439C-0.00331137 15.0496 0.0688118 14.8615 0.201292 14.7193L1.64629 13.2733C1.11753 12.4962 0.876282 11.5591 0.964078 10.6233C1.05187 9.68745 1.46322 8.81153 2.12729 8.14634L2.42729 7.84634C2.68851 7.58504 3.03751 7.43011 3.40653 7.41163C3.77555 7.39315 4.13827 7.51244 4.42429 7.74634L5.70129 6.46934C5.84192 6.32889 6.03254 6.25 6.23129 6.25C6.43004 6.25 6.62067 6.32889 6.76129 6.46934Z" fill="white"/>
</svg>
