<svg width="9" height="12" viewBox="0 0 9 12" fill="none" xmlns="http://www.w3.org/2000/svg">
<path d="M6.5634 0.050843C6.6368 0.0933968 6.69361 0.159586 6.72453 0.238596C6.75545 0.317607 6.75867 0.404769 6.73365 0.485843L5.3829 4.87484H7.87515C7.94839 4.87481 8.02004 4.89623 8.08125 4.93646C8.14245 4.97668 8.19054 5.03395 8.21958 5.10119C8.24861 5.16843 8.25732 5.2427 8.24463 5.31483C8.23193 5.38697 8.19839 5.4538 8.14815 5.50709L2.14815 11.8821C2.09009 11.9438 2.01284 11.9841 1.92898 11.9963C1.84512 12.0085 1.7596 11.9919 1.68635 11.9493C1.61311 11.9067 1.55646 11.8405 1.52564 11.7616C1.49483 11.6826 1.49166 11.5956 1.51665 11.5146L2.8674 7.12484H0.37515C0.301908 7.12487 0.230262 7.10345 0.169054 7.06323C0.107846 7.02301 0.0597574 6.96574 0.0307234 6.8985C0.00168944 6.83126 -0.00701845 6.75699 0.00567462 6.68485C0.0183677 6.61272 0.051906 6.54588 0.10215 6.49259L6.10215 0.117593C6.16013 0.0559424 6.23727 0.0157195 6.32101 0.00346444C6.40475 -0.00879061 6.49018 0.00764293 6.5634 0.050093V0.050843Z" fill="white"/>
</svg>
