<svg width="18" height="18" viewBox="0 0 18 18" fill="none" xmlns="http://www.w3.org/2000/svg">
<path d="M3 15C3 14.0625 3.25625 13.2217 3.76875 12.4777C4.28125 11.7337 4.94375 11.1933 5.75625 10.8563L5.56875 9H3V4.5H0.75V3H6.75V4.5H4.5V7.5H5.4L5.25 6H12.75L12.6 7.5H13.5V4.5H11.25V3H17.2687V4.5H15.0187V9H12.45L12.2625 10.8563C13.075 11.1938 13.7345 11.7345 14.241 12.4785C14.7475 13.2225 15.0005 14.063 15 15H13.5C13.5 14.175 13.2063 13.4687 12.6188 12.8812C12.0313 12.2937 11.325 12 10.5 12H7.5C6.675 12 5.96875 12.2937 5.38125 12.8812C4.79375 13.4687 4.5 14.175 4.5 15H3ZM7.21875 10.5H10.7625L11.0812 7.5H6.9L7.21875 10.5Z" fill="white"/>
</svg>
