<svg width="14" height="14" viewBox="0 0 14 14" fill="none" xmlns="http://www.w3.org/2000/svg">
<path d="M4.28475 10.2847C4.42825 10.1407 4.5 9.9625 4.5 9.75C4.5 9.5375 4.428 9.3595 4.284 9.216C4.14 9.0725 3.962 9.0005 3.75 9C3.538 8.9995 3.36 9.0715 3.216 9.216C3.072 9.3605 3 9.5385 3 9.75C3 9.9615 3.072 10.1397 3.216 10.2847C3.36 10.4297 3.538 10.5015 3.75 10.5C3.962 10.4985 4.14025 10.4272 4.28475 10.2847ZM4.28475 7.284C4.42825 7.1405 4.5 6.9625 4.5 6.75C4.5 6.5375 4.428 6.3595 4.284 6.216C4.14 6.0725 3.962 6.0005 3.75 6C3.538 5.9995 3.36 6.0715 3.216 6.216C3.072 6.3605 3 6.5385 3 6.75C3 6.9615 3.072 7.13975 3.216 7.28475C3.36 7.42975 3.538 7.5015 3.75 7.5C3.962 7.4985 4.14025 7.4265 4.28475 7.284ZM4.28475 4.284C4.42825 4.141 4.5 3.963 4.5 3.75C4.5 3.537 4.428 3.359 4.284 3.216C4.14 3.073 3.962 3.001 3.75 3C3.538 2.999 3.36 3.071 3.216 3.216C3.072 3.361 3 3.539 3 3.75C3 3.961 3.072 4.13925 3.216 4.28475C3.36 4.43025 3.538 4.502 3.75 4.5C3.962 4.498 4.14025 4.426 4.28475 4.284ZM6 10.5H10.5V9H6V10.5ZM6 7.5H10.5V6H6V7.5ZM6 4.5H10.5V3H6V4.5ZM1.5 13.5C1.0875 13.5 0.7345 13.3533 0.441 13.0598C0.1475 12.7663 0.0005 12.413 0 12V1.5C0 1.0875 0.147 0.7345 0.441 0.441C0.735 0.1475 1.088 0.0005 1.5 0H12C12.4125 0 12.7658 0.147 13.0598 0.441C13.3538 0.735 13.5005 1.088 13.5 1.5V12C13.5 12.4125 13.3533 12.7658 13.0598 13.0598C12.7663 13.3538 12.413 13.5005 12 13.5H1.5ZM1.5 12H12V1.5H1.5V12Z" fill="white"/>
</svg>
