<svg width="38" height="38" viewBox="0 0 38 38" fill="none" xmlns="http://www.w3.org/2000/svg">
<rect width="38" height="38" rx="19" fill="#BA0404"/>
<path d="M19.9751 12.3608L26.4506 23.5763C26.5494 23.7474 26.6013 23.9414 26.6013 24.1388C26.6013 24.3363 26.5494 24.5303 26.4506 24.7013C26.3519 24.8723 26.2099 25.0144 26.0389 25.1131C25.8678 25.2118 25.6738 25.2638 25.4764 25.2638H12.5254C12.3279 25.2638 12.1339 25.2118 11.9629 25.1131C11.7919 25.0144 11.6498 24.8723 11.5511 24.7013C11.4524 24.5303 11.4004 24.3363 11.4004 24.1388C11.4004 23.9414 11.4524 23.7474 11.5511 23.5763L18.0266 12.3608C18.4594 11.6108 19.5416 11.6108 19.9751 12.3608ZM19.0009 13.6733L13.1749 23.7638H24.8269L19.0009 13.6733ZM19.0009 21.2498C19.1998 21.2498 19.3905 21.3289 19.5312 21.4695C19.6718 21.6102 19.7509 21.8009 19.7509 21.9998C19.7509 22.1988 19.6718 22.3895 19.5312 22.5302C19.3905 22.6708 19.1998 22.7498 19.0009 22.7498C18.8019 22.7498 18.6112 22.6708 18.4705 22.5302C18.3299 22.3895 18.2509 22.1988 18.2509 21.9998C18.2509 21.8009 18.3299 21.6102 18.4705 21.4695C18.6112 21.3289 18.8019 21.2498 19.0009 21.2498ZM19.0009 15.9998C19.1998 15.9998 19.3905 16.0789 19.5312 16.2195C19.6718 16.3602 19.7509 16.5509 19.7509 16.7498V19.7498C19.7509 19.9488 19.6718 20.1395 19.5312 20.2802C19.3905 20.4208 19.1998 20.4998 19.0009 20.4998C18.8019 20.4998 18.6112 20.4208 18.4705 20.2802C18.3299 20.1395 18.2509 19.9488 18.2509 19.7498V16.7498C18.2509 16.5509 18.3299 16.3602 18.4705 16.2195C18.6112 16.0789 18.8019 15.9998 19.0009 15.9998Z" fill="white"/>
</svg>
