<svg width="977" height="929" viewBox="0 0 977 929" fill="none" xmlns="http://www.w3.org/2000/svg">
<path d="M946.931 0.337891C963.339 0.3378 976.631 13.6596 976.594 30.0684L974.598 899.063C974.56 915.419 961.291 928.657 944.936 928.657L30.0693 928.662C13.6605 928.662 0.368564 915.34 0.40625 898.932L2.40234 29.9375C2.43991 13.5821 15.7091 0.342974 32.0645 0.342773L946.931 0.337891ZM871.061 9.42676C866.585 9.42685 862.352 11.4583 859.552 14.9492C856.88 18.2806 852.84 20.2196 848.569 20.2197L128.861 20.2246C124.393 20.2246 120.141 18.3004 117.191 14.9434C114.114 11.4405 109.677 9.43271 105.015 9.43262H37.3945C20.6676 9.43262 7.0962 22.9714 7.05664 39.6982L5.06445 887.108C5.02499 903.891 18.6195 917.518 35.4023 917.518H107.301C111.244 917.518 114.987 915.782 117.535 912.772C119.955 909.915 123.509 908.267 127.254 908.267L847.019 908.262C850.966 908.262 854.737 909.898 857.435 912.78C860.26 915.799 864.209 917.513 868.344 917.513H940.033C956.76 917.513 970.332 903.973 970.371 887.246L971.367 463.471L972.363 39.8359C972.403 23.0533 958.809 9.42699 942.026 9.42676H871.061Z" fill="white" stroke="url(#paint0_linear_664_239)" stroke-width="0.675"/>
<path d="M855.56 0H124.458C122.595 0 121.744 2.3228 123.166 3.52646L127.891 7.52646C128.252 7.83221 128.71 8 129.183 8H850.855C851.33 8 851.789 7.83118 852.151 7.52371L856.856 3.52371C858.273 2.31839 857.421 0 855.56 0Z" fill="url(#paint1_linear_664_239)"/>
<path d="M857.441 928H123.583C121.606 928 120.827 925.438 122.47 924.338L128.445 920.338C128.774 920.118 129.162 920 129.558 920H851.491C851.889 920 852.277 920.118 852.607 920.34L858.557 924.34C860.195 925.442 859.416 928 857.441 928Z" fill="url(#paint2_linear_664_239)"/>
<defs>
<linearGradient id="paint0_linear_664_239" x1="311.794" y1="54.2979" x2="-43.8771" y2="12.8879" gradientUnits="userSpaceOnUse">
<stop stop-color="#DD2C2C"/>
<stop offset="1" stop-color="#DF3D3D"/>
</linearGradient>
<linearGradient id="paint1_linear_664_239" x1="465.591" y1="7.75733" x2="463.356" y2="-6.94987" gradientUnits="userSpaceOnUse">
<stop stop-color="#ED3737"/>
<stop offset="1" stop-color="#FF3131"/>
</linearGradient>
<linearGradient id="paint2_linear_664_239" x1="340.167" y1="920.243" x2="338.385" y2="935.075" gradientUnits="userSpaceOnUse">
<stop stop-color="#ED3737"/>
<stop offset="1" stop-color="#FF3131"/>
</linearGradient>
</defs>
</svg>
