<svg width="1163" height="590" viewBox="0 0 1163 590" fill="none" xmlns="http://www.w3.org/2000/svg">
<rect x="2.5" y="7.5" width="1154" height="582" rx="29.5" stroke="url(#paint0_linear_611_3074)"/>
<path d="M1132.87 0.337891C1149.3 0.337842 1162.6 13.696 1162.53 30.1279L1160.25 560.125C1160.18 576.457 1146.92 589.659 1130.59 589.659L30.1299 589.662C13.6978 589.662 0.39606 576.304 0.466797 559.872L2.74902 29.876C2.81933 13.5439 16.0789 0.340869 32.4111 0.34082L1132.87 0.337891ZM1034.85 5.86426C1030.74 5.86427 1026.73 7.07602 1023.32 9.34766C1020.01 11.5455 1016.13 12.7178 1012.17 12.7178L151.445 12.7217C147.189 12.7217 143.013 11.5533 139.375 9.34375C135.631 7.07009 131.335 5.86724 126.955 5.86719H38.7539C22.0513 5.86736 8.4906 19.3688 8.41699 36.0713L6.1416 552.359C6.06753 569.166 19.6715 582.831 36.4785 582.831H129.433C133.096 582.831 136.685 581.794 139.784 579.841C142.776 577.956 146.24 576.956 149.776 576.956L1009.88 576.952C1013.71 576.952 1017.47 577.95 1020.8 579.846C1024.23 581.8 1028.1 582.827 1032.05 582.827H1124.75C1141.46 582.827 1155.02 569.326 1155.09 552.624L1156.23 294.347L1157.37 36.335C1157.44 19.528 1143.84 5.86426 1127.03 5.86426H1034.85Z" fill="white" stroke="url(#paint1_linear_611_3074)" stroke-width="0.675"/>
<path d="M1021.93 0H180.091C178.073 0 177.325 2.6505 179.046 3.70525L185.573 7.70525C185.888 7.89799 186.249 8 186.618 8H1015.44C1015.81 8 1016.17 7.89727 1016.48 7.70324L1022.98 3.70324C1024.7 2.64624 1023.95 0 1021.93 0Z" fill="url(#paint2_linear_611_3074)"/>
<path d="M1021.41 588H179.623C177.504 588 176.84 585.137 178.742 584.204L186.901 580.204C187.175 580.07 187.476 580 187.781 580H1013.29C1013.59 580 1013.9 580.07 1014.17 580.206L1022.29 584.206C1024.19 585.141 1023.53 588 1021.41 588Z" fill="url(#paint3_linear_611_3074)"/>
<defs>
<linearGradient id="paint0_linear_611_3074" x1="579.5" y1="7" x2="581.109" y2="693.434" gradientUnits="userSpaceOnUse">
<stop stop-color="#FB5555" stop-opacity="0"/>
<stop offset="1" stop-color="#FB5555"/>
</linearGradient>
<linearGradient id="paint1_linear_611_3074" x1="371.152" y1="34.4841" x2="-38.4627" y2="-54.9044" gradientUnits="userSpaceOnUse">
<stop stop-color="#DD2C2C"/>
<stop offset="1" stop-color="#DF3D3D"/>
</linearGradient>
<linearGradient id="paint2_linear_611_3074" x1="468.781" y1="7.75733" x2="467.145" y2="-7.10961" gradientUnits="userSpaceOnUse">
<stop stop-color="#ED3737"/>
<stop offset="1" stop-color="#FF3131"/>
</linearGradient>
<linearGradient id="paint3_linear_611_3074" x1="294.726" y1="580.243" x2="293.412" y2="595.174" gradientUnits="userSpaceOnUse">
<stop stop-color="#ED3737"/>
<stop offset="1" stop-color="#FF3131"/>
</linearGradient>
</defs>
</svg>
