<svg width="198" height="226" viewBox="0 0 198 226" fill="none" xmlns="http://www.w3.org/2000/svg">
<path d="M1.2793 145.642V170.19C33.4222 187.623 97.9222 222.702 98.7793 223.556L115.922 215.017M196.279 79.4691V54.921C164.136 37.4884 99.6364 2.40951 98.7793 1.55566L81.6364 10.0941M1.2793 99.748C1.2793 98.0403 1.2793 71.998 1.2793 59.1903L16.2793 46.3826M196.279 142.44C196.279 144.148 196.279 163.786 196.279 163.786L155.565 192.604" stroke="url(#paint0_linear_617_3108)" stroke-width="2.56"/>
<path d="M98.2793 12.5557L185.279 62.5557V162.556L98.2793 212.556L11.2793 162.556V62.5557L98.2793 12.5557Z" fill="url(#paint1_linear_617_3108)"/>
<path d="M98.7793 27.5557L173.279 70.3057V155.806L98.7793 198.556L24.2793 155.806V70.3057L98.7793 27.5557Z" fill="url(#paint2_linear_617_3108)"/>
<g filter="url(#filter0_f_617_3108)">
<path d="M25.2793 154.556L98.5393 197.556L173.279 154.556H98.5393H25.2793Z" fill="#AF3434" fill-opacity="0.7"/>
</g>
<path d="M172.941 70.501V155.609L98.7793 198.166L24.6172 155.609V70.501L98.7793 27.9443L172.941 70.501Z" fill="white" fill-opacity="0.5" stroke="url(#paint3_linear_617_3108)" stroke-width="0.675"/>
<g clip-path="url(#clip0_617_3108)">
<path d="M95.002 99.3604C122.635 99.3604 145.037 111.805 145.037 127.157C145.037 142.509 122.636 154.955 95.002 154.955C67.3684 154.955 44.9668 142.509 44.9668 127.157C44.9672 111.805 67.3686 99.3604 95.002 99.3604ZM95.002 102.141C71.2066 102.141 51.9163 112.096 51.916 124.378C51.916 136.66 71.2064 146.616 95.002 146.616C118.798 146.616 138.088 136.66 138.088 124.378C138.088 112.096 118.797 102.141 95.002 102.141Z" fill="white"/>
<path d="M82.4938 110.478L80.409 123.334M78.3242 134.106L80.409 123.334M80.409 123.334H109.596M109.596 123.334L107.511 110.478M109.596 123.334L111.681 134.106" stroke="white" stroke-width="5.31222"/>
<mask id="path-8-inside-1_617_3108" fill="white">
<path d="M77.5956 71.5873C75.9751 70.3984 76.7582 67.8323 78.7662 67.7506L135.507 65.4518C137.385 65.3757 138.43 67.5952 137.175 68.9939L99.2512 111.262C97.9089 112.758 95.4321 111.727 95.5482 109.72L96.8673 86.9287C96.9089 86.2099 96.5834 85.5187 96.0029 85.0927L77.5956 71.5873ZM98.753 84.9205C98.0512 85.2512 97.5849 85.9382 97.5373 86.7126L96.2359 107.868C96.1125 109.875 98.5875 110.914 99.9347 109.422L137.499 67.8124C137.889 67.38 137.403 66.7249 136.876 66.9725L98.753 84.9205Z"/>
</mask>
<path d="M77.5956 71.5873C75.9751 70.3984 76.7582 67.8323 78.7662 67.7506L135.507 65.4518C137.385 65.3757 138.43 67.5952 137.175 68.9939L99.2512 111.262C97.9089 112.758 95.4321 111.727 95.5482 109.72L96.8673 86.9287C96.9089 86.2099 96.5834 85.5187 96.0029 85.0927L77.5956 71.5873ZM98.753 84.9205C98.0512 85.2512 97.5849 85.9382 97.5373 86.7126L96.2359 107.868C96.1125 109.875 98.5875 110.914 99.9347 109.422L137.499 67.8124C137.889 67.38 137.403 66.7249 136.876 66.9725L98.753 84.9205Z" fill="white"/>
<path d="M77.5956 71.5873L87.6515 57.8815L87.6513 57.8815L77.5956 71.5873ZM78.7662 67.7506L78.078 50.7654L78.0751 50.7655L78.7662 67.7506ZM135.507 65.4518L136.195 82.4369L136.195 82.4369L135.507 65.4518ZM137.175 68.9939L124.522 57.6416L124.522 57.6416L137.175 68.9939ZM99.2512 111.262L111.902 122.617L111.904 122.615L99.2512 111.262ZM95.5482 109.72L78.5775 108.738L78.5775 108.738L95.5482 109.72ZM96.8673 86.9287L113.838 87.9109L113.838 87.9107L96.8673 86.9287ZM96.0029 85.0927L106.06 71.3875L106.059 71.387L96.0029 85.0927ZM98.753 84.9206L91.5123 69.5407L91.5092 69.5421L98.753 84.9206ZM97.5373 86.7126L114.504 87.7563L114.504 87.756L97.5373 86.7126ZM96.2359 107.868L79.2689 106.824L79.2689 106.825L96.2359 107.868ZM99.9347 109.422L87.3169 98.0307L87.3168 98.0308L99.9347 109.422ZM137.499 67.8124L150.117 79.2037L150.125 79.1953L137.499 67.8124ZM136.876 66.9725L129.646 51.5878L129.635 51.5926L136.876 66.9725ZM77.5956 71.5873L87.6513 57.8815C98.9941 66.2035 93.5144 84.1636 79.4573 84.7356L78.7662 67.7506L78.0751 50.7655C60.002 51.5009 52.9561 74.5933 67.5398 85.2932L77.5956 71.5873ZM78.7662 67.7506L79.4543 84.7357L136.195 82.4369L135.507 65.4518L134.819 48.4666L78.078 50.7654L78.7662 67.7506ZM135.507 65.4518L136.195 82.4369C123.052 82.9694 115.737 67.4324 124.522 57.6416L137.175 68.9939L149.828 80.3462C161.122 67.7579 151.717 47.7819 134.819 48.4666L135.507 65.4518ZM137.175 68.9939L124.522 57.6416L86.5983 99.9101L99.2512 111.262L111.904 122.615L149.828 80.3461L137.175 68.9939ZM99.2512 111.262L86.6 99.9083C95.9979 89.4368 113.332 96.6585 112.519 110.702L95.5482 109.72L78.5775 108.738C77.5327 126.795 99.8199 136.079 111.902 122.617L99.2512 111.262ZM95.5482 109.72L112.519 110.702L113.838 87.9109L96.8673 86.9287L79.8966 85.9466L78.5775 108.738L95.5482 109.72ZM96.8673 86.9287L113.838 87.9107C114.212 81.4396 111.284 75.2208 106.06 71.3875L96.0029 85.0927L85.9463 98.798C81.8834 95.8167 79.6053 90.9801 79.8966 85.9467L96.8673 86.9287ZM96.0029 85.0927L106.059 71.387L87.6515 57.8815L77.5956 71.5873L67.5397 85.2931L85.947 98.7985L96.0029 85.0927ZM98.753 84.9206L91.5092 69.5421C85.1954 72.5162 80.999 78.6962 80.5702 85.6692L97.5373 86.7126L114.504 87.756C114.171 93.1802 110.907 97.9861 105.997 100.299L98.753 84.9206ZM97.5373 86.7126L80.5703 85.6689L79.2689 106.824L96.2359 107.868L113.203 108.912L114.504 87.7563L97.5373 86.7126ZM96.2359 107.868L79.2689 106.825C78.1575 124.897 100.435 134.235 112.553 120.813L99.9347 109.422L87.3168 98.0308C96.7396 87.5932 114.068 94.8522 113.203 108.911L96.2359 107.868ZM99.9347 109.422L112.553 120.813L150.117 79.2037L137.499 67.8124L124.882 56.4212L87.3169 98.0307L99.9347 109.422ZM137.499 67.8124L150.125 79.1953C162.946 64.9741 146.952 43.4539 129.646 51.5878L136.876 66.9725L144.107 82.3572C127.854 89.9958 112.832 69.786 124.874 56.4296L137.499 67.8124ZM136.876 66.9725L129.635 51.5926L91.5123 69.5407L98.753 84.9206L105.994 100.3L144.117 82.3524L136.876 66.9725Z" fill="white" mask="url(#path-8-inside-1_617_3108)"/>
</g>
<defs>
<filter id="filter0_f_617_3108" x="14.6356" y="143.912" width="169.287" height="64.2874" filterUnits="userSpaceOnUse" color-interpolation-filters="sRGB">
<feFlood flood-opacity="0" result="BackgroundImageFix"/>
<feBlend mode="normal" in="SourceGraphic" in2="BackgroundImageFix" result="shape"/>
<feGaussianBlur stdDeviation="5.32186" result="effect1_foregroundBlur_617_3108"/>
</filter>
<linearGradient id="paint0_linear_617_3108" x1="63.5104" y1="14.5311" x2="-7.76643" y2="7.59986" gradientUnits="userSpaceOnUse">
<stop stop-color="#FD5757"/>
<stop offset="1" stop-color="#FC4747"/>
</linearGradient>
<linearGradient id="paint1_linear_617_3108" x1="98.2793" y1="12.5557" x2="98.2793" y2="212.556" gradientUnits="userSpaceOnUse">
<stop stop-color="#EE4343"/>
<stop offset="1" stop-color="#9C2E2E"/>
</linearGradient>
<linearGradient id="paint2_linear_617_3108" x1="98.7793" y1="27.5557" x2="98.7793" y2="198.556" gradientUnits="userSpaceOnUse">
<stop stop-color="#783C3C"/>
<stop offset="1" stop-color="#462727"/>
</linearGradient>
<linearGradient id="paint3_linear_617_3108" x1="71.8302" y1="37.5502" x2="17.3593" y2="32.2957" gradientUnits="userSpaceOnUse">
<stop stop-color="#FD5757"/>
<stop offset="1" stop-color="#FC4747"/>
</linearGradient>
<clipPath id="clip0_617_3108">
<rect width="108" height="108" fill="white" transform="translate(43.2793 57.5557)"/>
</clipPath>
</defs>
</svg>
