<svg width="29" height="25" viewBox="68 78 29 25" fill="none" xmlns="http://www.w3.org/2000/svg">
<g>
<path d="M96.2548 89.2659C96.2548 94.6438 92.0627 99.0035 86.8916 99.0035C81.7204 99.0035 77.5283 94.6438 77.5283 89.2659C77.5283 83.8879 81.7204 79.5282 86.8916 79.5282C92.0627 79.5282 96.2548 83.8879 96.2548 89.2659Z" fill="url(#paint0_linear_555_185)"/>
</g>
<g filter="url(#filter3_i_555_185)">
<path d="M92.2316 94.2874C92.2967 93.9031 92.3307 93.5078 92.3307 93.1043C92.3307 89.3297 89.361 86.2698 85.6978 86.2698C82.9744 86.2698 80.6344 87.9609 79.6129 90.3796C78.7854 89.6434 77.7115 89.1989 76.538 89.1989C73.9214 89.1989 71.8002 91.4088 71.8002 94.1349C71.8002 94.2867 71.8068 94.4369 71.8197 94.5852C70.5611 95.2204 69.6945 96.5532 69.6945 98.0945C69.6945 100.251 71.3915 102 73.4848 102H91.3831C93.4764 102 95.1733 100.251 95.1733 98.0945C95.1733 96.2382 93.9164 94.6844 92.2316 94.2874Z" fill="url(#paint1_linear_555_185)"/>
</g>
<defs>
<filter id="filter3_i_555_185" x="69.6943" y="86.2698" width="25.479" height="25.7301" filterUnits="userSpaceOnUse" color-interpolation-filters="sRGB">
<feFlood flood-opacity="0" result="BackgroundImageFix"/>
<feBlend mode="normal" in="SourceGraphic" in2="BackgroundImageFix" result="shape"/>
<feColorMatrix in="SourceAlpha" type="matrix" values="0 0 0 0 0 0 0 0 0 0 0 0 0 0 0 0 0 0 127 0" result="hardAlpha"/>
<feOffset dy="11"/>
<feGaussianBlur stdDeviation="5"/>
<feComposite in2="hardAlpha" operator="arithmetic" k2="-1" k3="1"/>
<feColorMatrix type="matrix" values="0 0 0 0 1 0 0 0 0 1 0 0 0 0 1 0 0 0 1 0"/>
<feBlend mode="normal" in2="shape" result="effect1_innerShadow_555_185"/>
</filter>
<linearGradient id="paint0_linear_555_185" x1="85.4693" y1="94.5661" x2="93.6382" y2="80.79" gradientUnits="userSpaceOnUse">
<stop stop-color="#FF9900"/>
<stop offset="1" stop-color="#FFEE94"/>
</linearGradient>
<linearGradient id="paint1_linear_555_185" x1="71.3151" y1="100.595" x2="97.7337" y2="81.599" gradientUnits="userSpaceOnUse">
<stop stop-color="white"/>
<stop offset="1" stop-color="white" stop-opacity="0.58"/>
</linearGradient>
</defs>
</svg>
